<?xml version="1.0" encoding="UTF-8"?>
<svg width="760px" height="591px" viewBox="0 0 760 591" version="1.1" xmlns="http://www.w3.org/2000/svg" xmlns:xlink="http://www.w3.org/1999/xlink">
    <!-- Generator: Sketch 51.3 (57544) - http://www.bohemiancoding.com/sketch -->
    <title>Group 12</title>
    <desc>Created with Sketch.</desc>
    <defs>
        <linearGradient x1="49.9873381%" y1="1.24638728%" x2="49.0045695%" y2="97.9864859%" id="linearGradient-1">
            <stop stop-color="#21A1F3" offset="0%"></stop>
            <stop stop-color="#02179C" offset="100%"></stop>
        </linearGradient>
        <linearGradient x1="49.9548577%" y1="4.44364162%" x2="48.9841145%" y2="100%" id="linearGradient-2">
            <stop stop-color="#337DED" offset="0%"></stop>
            <stop stop-color="#72B6FF" offset="100%"></stop>
        </linearGradient>
        <rect id="path-3" x="0" y="0" width="760" height="503" rx="52"></rect>
        <filter x="-1.2%" y="-1.9%" width="102.5%" height="103.8%" filterUnits="objectBoundingBox" id="filter-4">
            <feGaussianBlur stdDeviation="9" in="SourceAlpha" result="shadowBlurInner1"></feGaussianBlur>
            <feOffset dx="0" dy="1" in="shadowBlurInner1" result="shadowOffsetInner1"></feOffset>
            <feComposite in="shadowOffsetInner1" in2="SourceAlpha" operator="arithmetic" k2="-1" k3="1" result="shadowInnerInner1"></feComposite>
            <feColorMatrix values="0 0 0 0 0.567814626   0 0 0 0 0.567814626   0 0 0 0 0.567814626  0 0 0 0.5 0" type="matrix" in="shadowInnerInner1"></feColorMatrix>
        </filter>
    </defs>
    <g id="Page-1" stroke="none" stroke-width="1" fill="none" fill-rule="evenodd">
        <g id="Group-12" transform="translate(-30.000000, -114.000000)">
            <g id="Group-11" transform="translate(30.000000, 114.000000)">
                <g id="Group-3" fill="url(#linearGradient-1)">
                    <path d="M37,-5.72290361e-13 L316.754868,-2.98427949e-13 C330.84302,-2.75990316e-13 344.037607,6.90113313 352.073541,18.4726405 L458.819629,172.183852 C471.42064,190.328935 466.926281,215.253568 448.781198,227.854579 C442.082151,232.506791 434.121048,235 425.96505,235 L40,235 C17.90861,235 -3.75577421e-13,217.09139 -3.97903932e-13,195 L-3.97903932e-13,37 C-4.00406441e-13,16.5654643 16.5654643,-5.93102135e-13 37,-5.96855898e-13 Z" id="Rectangle-6"></path>
                </g>
                <g id="Group-3" transform="translate(0.000000, 88.000000)">
                    <g id="Rectangle-6">
                        <use fill="url(#linearGradient-2)" fill-rule="evenodd" xlink:href="#path-3"></use>
                        <use fill="black" fill-opacity="1" filter="url(#filter-4)" xlink:href="#path-3"></use>
                    </g>
                </g>
            </g>
            <rect id="Rectangle-5" x="0" y="0" width="819" height="819"></rect>
        </g>
    </g>
</svg>