<?xml version="1.0" encoding="UTF-8"?>
<svg width="867px" height="867px" viewBox="0 0 867 867" version="1.1" xmlns="http://www.w3.org/2000/svg" xmlns:xlink="http://www.w3.org/1999/xlink">
    <!-- Generator: Sketch 51.3 (57544) - http://www.bohemiancoding.com/sketch -->
    <title>Group 21</title>
    <desc>Created with Sketch.</desc>
    <defs>
        <linearGradient x1="81.9824131%" y1="20.1336952%" x2="18.4485651%" y2="81.5206377%" id="linearGradient-1">
            <stop stop-color="#3B3B3B" offset="0%"></stop>
            <stop stop-color="#A0A0A0" offset="100%"></stop>
        </linearGradient>
        <linearGradient x1="0%" y1="17.5341357%" x2="88.4915047%" y2="88.0881546%" id="linearGradient-2">
            <stop stop-color="#55FF35" offset="0%"></stop>
            <stop stop-color="#23992B" offset="100%"></stop>
        </linearGradient>
        <linearGradient x1="81.9824131%" y1="20.1336952%" x2="15.6054213%" y2="84.2677074%" id="linearGradient-3">
            <stop stop-color="#FFDC61" offset="0%"></stop>
            <stop stop-color="#FF8000" offset="100%"></stop>
        </linearGradient>
        <path d="M437.5,819 C211.339395,819 28,635.660605 28,409.5 C28,183.339395 211.339395,0 437.5,0 C663.660605,0 847,183.339395 847,409.5 C847,635.660605 663.660605,819 437.5,819 Z M437.5,748 C624.448388,748 776,596.448388 776,409.5 C776,222.551612 624.448388,71 437.5,71 C250.551612,71 99,222.551612 99,409.5 C99,596.448388 250.551612,748 437.5,748 Z" id="path-4"></path>
        <filter x="-4.4%" y="-4.4%" width="108.8%" height="108.8%" filterUnits="objectBoundingBox" id="filter-5">
            <feMorphology radius="2.5" operator="dilate" in="SourceAlpha" result="shadowSpreadOuter1"></feMorphology>
            <feOffset dx="0" dy="0" in="shadowSpreadOuter1" result="shadowOffsetOuter1"></feOffset>
            <feGaussianBlur stdDeviation="9.5" in="shadowOffsetOuter1" result="shadowBlurOuter1"></feGaussianBlur>
            <feColorMatrix values="0 0 0 0 0.443372662   0 0 0 0 0.443372662   0 0 0 0 0.443372662  0 0 0 0.5 0" type="matrix" in="shadowBlurOuter1"></feColorMatrix>
        </filter>
    </defs>
    <g id="Page-1" stroke="none" stroke-width="1" fill="none" fill-rule="evenodd">
        <g id="Group-21" transform="translate(-4.000000, 24.000000)">
            <g id="Group-13" transform="translate(99.000000, 71.000000)" fill="url(#linearGradient-1)">
                <circle id="Oval" cx="338.5" cy="338.5" r="338.5"></circle>
            </g>
            <path d="M52.269743,333.131252 C178.536787,218.926338 281.704665,181.25227 361.773377,220.109049 C481.876445,278.394217 411.960701,562.265525 496.842641,603.458129 C553.430601,630.919865 652.746236,599.792439 794.789547,510.075849" id="Line-3" stroke="url(#linearGradient-2)" stroke-width="15" stroke-linecap="square" transform="translate(423.529645, 409.212269) rotate(-30.000000) translate(-423.529645, -409.212269) "></path>
            <g id="Combined-Shape">
                <use fill="black" fill-opacity="1" filter="url(#filter-5)" xlink:href="#path-4"></use>
                <use fill="url(#linearGradient-3)" fill-rule="evenodd" xlink:href="#path-4"></use>
            </g>
            <path d="M180.878906,498.199219 C164.399414,498.199219 155,488.433594 155,471.099609 L155,346.099609 C155,328.765625 164.399414,319 180.878906,319 L233.24707,319 C280.244141,319 304.414062,341.094727 304.414062,378.814453 C304.414062,398.345703 296.113281,416.77832 279.389648,426.543945 L297.822266,456.817383 C302.338867,464.385742 303.31543,468.414062 303.31543,474.517578 C303.31543,488.311523 292.573242,498.199219 277.558594,498.199219 C264.863281,498.199219 259.736328,493.682617 250.581055,477.447266 L227.387695,436.06543 L206.757812,436.06543 L206.757812,471.099609 C206.757812,488.433594 197.358398,498.199219 180.878906,498.199219 Z M206.757812,401.885742 L228.120117,401.885742 C242.646484,401.885742 251.557617,392.974609 251.557617,379.668945 C251.557617,366.607422 242.158203,357.208008 228.242188,357.208008 L206.757812,357.208008 L206.757812,401.885742 Z M388.408009,498.56543 C344.462697,498.56543 317.607228,473.174805 317.607228,427.642578 C317.607228,383.331055 345.195118,356.963867 388.408009,356.963867 C431.86504,356.963867 459.330861,383.086914 459.330861,427.642578 C459.330861,473.296875 432.475392,498.56543 388.408009,498.56543 Z M388.408009,462.798828 C400.859181,462.798828 408.549611,450.347656 408.549611,427.764648 C408.549611,405.791992 400.737111,392.730469 388.408009,392.730469 C376.200978,392.730469 368.388478,405.791992 368.388478,427.764648 C368.388478,450.347656 375.834767,462.798828 388.408009,462.798828 Z M543.080667,498.56543 C499.135354,498.56543 472.279885,473.174805 472.279885,427.642578 C472.279885,383.331055 499.867776,356.963867 543.080667,356.963867 C586.537698,356.963867 614.003518,383.086914 614.003518,427.642578 C614.003518,473.296875 587.148049,498.56543 543.080667,498.56543 Z M543.080667,462.798828 C555.531839,462.798828 563.222268,450.347656 563.222268,427.764648 C563.222268,405.791992 555.409768,392.730469 543.080667,392.730469 C530.873635,392.730469 523.061135,405.791992 523.061135,427.764648 C523.061135,450.347656 530.507424,462.798828 543.080667,462.798828 Z M642.455473,457.549805 L642.455473,396.758789 L639.403715,396.758789 C628.661527,396.758789 621.459379,389.556641 621.459379,378.570312 C621.459379,367.583984 628.661527,360.381836 639.403715,360.381836 L642.455473,360.381836 L642.455473,353.179688 C642.455473,336.822266 651.488676,327.300781 667.479887,327.300781 C683.471098,327.300781 692.504301,336.822266 692.504301,353.179688 L692.504301,360.381836 L701.293363,360.381836 C712.035551,360.381836 719.237699,367.706055 719.237699,378.570312 C719.237699,389.43457 712.035551,396.758789 701.293363,396.758789 L692.504301,396.758789 L692.504301,446.441406 C692.504301,454.131836 695.067777,456.817383 699.82852,457.427734 L702.758207,457.793945 C713.256254,459.136719 719.60391,463.775391 719.60391,475.37207 C719.60391,489.776367 702.758207,497.100586 684.56973,497.100586 L683.471098,497.100586 C656.371488,497.100586 642.455473,483.550781 642.455473,457.549805 Z" id="Root" fill="#FFFFFF"></path>
        </g>
    </g>
</svg>